<svg xmlns="http://www.w3.org/2000/svg" width="508" height="699" viewBox="0 0 508 699">
    <g fill="none" fill-rule="evenodd">
        <g fill-rule="nonzero">
            <g>
                <g transform="translate(-135 -126) translate(135 126) translate(0 143.668)">
                    <g transform="translate(229.097 78.087)">
                        <path fill="#D6D8E5" d="M114.388 350.991l-53.045-30.753c-3.827-2.225-3.328-6.084 1.11-8.642l34.387-19.899 66.889 38.785-34.387 19.898c-4.438 2.547-11.093 2.825-14.954.611z" opacity=".4"/>
                        <path fill="#B1B4C4" d="M119.18 348.178l-53.067-30.71c-3.816-2.224-3.328-6.084 1.11-8.642l34.387-19.898 66.911 38.74-34.387 19.898c-4.449 2.547-11.126 2.825-14.953.612z"/>
                        <path fill="#B1B4C4" d="M168.477 327.668L168.477 325.632 165.382 327.423zM63.55 313.809L63.55 311.74 66.723 313.064z"/>
                        <path fill="#D6D8E5" d="M119.18 346.153l-53.067-30.72c-3.816-2.225-3.328-6.073 1.11-8.631l34.387-19.932L168.52 325.6l-34.387 19.898c-4.449 2.547-11.126 2.87-14.953.656z"/>
                        <path fill="#9EA1AF" d="M101.754 286.993L93.468 259.453 161.1 298.349 168.477 325.632z"/>
                        <path fill="#9EA1AF" d="M166.513 326.767L168.477 325.654 165.559 323.319z"/>
                        <path fill="#B1B4C4" d="M99.613 288.027L91.338 260.488 158.97 299.383 166.513 326.767z"/>
                        <path fill="#B1B4C4" d="M271.329 373.192L9.539 221.637c-3.67-2.125-6.655-7.786-6.655-12.747V5.838C2.884.933 5.857-1.325 9.54.799l261.789 151.555c3.671 2.125 6.655 7.786 6.655 12.736v203.064c0 4.905-3.006 7.162-6.655 5.038z"/>
                        <path fill="#B1B4C4" d="M272.649 375.283L275.555 373.604 274.302 364.984zM2.385 2.056L5.247.399 9.35 2.746s-4.37.667-4.437.645c-.066-.023-2.53-1.335-2.53-1.335z"/>
                        <path fill="#E4E7F2" d="M268.91 374.582L7.123 223.027C3.45 220.903.466 215.24.466 210.28V7.228c0-4.905 2.984-7.163 6.656-5.039L268.91 153.745c3.671 2.124 6.655 7.786 6.655 12.735v203.064c-.01 4.905-2.984 7.163-6.655 5.038z"/>
                        <path fill="#D6D8E5" d="M268.445 374.838L6.655 223.283C2.985 221.158 0 215.497 0 210.547V7.495C0 2.59 2.973.332 6.656 2.456l261.789 151.556c3.671 2.124 6.655 7.785 6.655 12.735V369.8c0 4.938-2.984 7.163-6.655 5.038z"/>
                        <path fill="#FFF" d="M271.495 362.503L3.317 207.255 3.46 8.307c0-2.036 1.43-2.859 3.184-1.847l261.789 151.556c1.887 1.236 3.07 3.303 3.183 5.561l-.122 198.926z"/>
                        <path fill="#E9EAF2" d="M254.89 189.548L17.171 51.94c-1.67-1.2-2.674-3.123-2.707-5.183V29.551c0-1.991 1.21-2.914 2.707-2.047l237.717 137.608c1.673 1.203 2.677 3.13 2.707 5.194v17.196c0 2.002-1.21 2.914-2.707 2.046zM242.488 235.607l-55.875-32.345c-1.67-1.2-2.673-3.123-2.706-5.183v-36.16c0-2.001 1.209-2.913 2.706-2.046l55.875 32.345c1.672 1.198 2.677 3.122 2.706 5.183v36.159c-.044 1.99-1.253 2.914-2.706 2.047zM168.843 247.352L28.675 166.158c-.839-.598-1.342-1.56-1.354-2.592v-6.218c0-1 .6-1.468 1.354-1.034l140.168 81.194c.834.601 1.336 1.562 1.353 2.592v6.229c0 .99-.61 1.457-1.353 1.023zM155.043 254.092L29.074 181.206c-.833-.602-1.334-1.562-1.353-2.591v-3.103c0-1.001.61-1.457 1.353-1.024l125.97 72.92c.834.6 1.335 1.561 1.353 2.591v3.092c0 .968-.61 1.435-1.354 1.001zM155.043 265.838l-125.969-72.92c-.834-.6-1.336-1.562-1.353-2.591v-3.103c0-.99.61-1.457 1.353-1.024l125.97 72.92c.834.6 1.335 1.561 1.353 2.591v3.103c0 1.001-.61 1.457-1.354 1.024zM122.841 258.942l-93.767-54.278c-.834-.601-1.336-1.562-1.353-2.592v-3.07c0-1 .61-1.457 1.353-1.034l93.767 54.278c.828.611 1.328 1.572 1.353 2.602v3.104c0 .967-.61 1.423-1.353.99zM243.797 250.644l-58.581-33.912c-.839-.598-1.342-1.56-1.354-2.592v-3.103c0-1.001.6-1.457 1.354-1.023l58.58 33.912c.835.601 1.336 1.562 1.354 2.592v3.103c0 1-.61 1.457-1.353 1.023zM243.797 262.4l-58.581-33.923c-.839-.597-1.342-1.56-1.354-2.592v-3.092c0-1 .6-1.468 1.354-1.034l58.58 33.968c.837.599 1.34 1.561 1.354 2.592v3.092c0 .99-.61 1.412-1.353.99zM228.455 265.26l-43.261-25.038c-.839-.597-1.342-1.56-1.354-2.591v-3.037c0-1 .6-1.457 1.354-1.023l43.261 25.026c.836.6 1.338 1.561 1.354 2.591v3.103c0 .946-.633 1.446-1.354.968zM242.488 326.144L186.613 293.8c-1.67-1.201-2.673-3.124-2.706-5.184v-36.159c0-1.99 1.209-2.914 2.706-2.046l55.875 32.344c1.665 1.22 2.653 3.16 2.662 5.227v36.16c0 1.946-1.21 2.87-2.662 2.002zM243.797 341.181l-58.581-33.912c-.839-.597-1.342-1.56-1.354-2.592v-3.092c0-1 .6-1.468 1.354-1.034l58.58 33.912c.828.612 1.328 1.573 1.354 2.603v3.092c0 1.001-.61 1.457-1.353 1.023z"/>
                        <ellipse cx="25.359" cy="44.383" fill="#DADCE5" rx="4.251" ry="7.38" transform="rotate(-30 25.36 44.383)"/>
                        <path fill="#DADCE5" d="M148.953 118.197l-20.565-11.9c-.418-.303-.67-.786-.677-1.302v-2.759c0-.5.3-.734.677-.511l20.565 11.9c.42.296.673.777.677 1.291v2.736c0 .534-.322.768-.677.545zM182.232 137.473l-20.566-11.88c-.416-.298-.667-.776-.677-1.29v-2.736c0-.5.31-.734.677-.511l20.566 11.9c.418.303.669.786.676 1.302v2.736c0 .456-.321.69-.676.479zM214.978 156.425l-20.566-11.923c-.42-.295-.673-.776-.677-1.29v-2.736c0-.5.3-.723.677-.512l20.566 11.901c.418.302.668.785.676 1.301v2.737c0 .511-.3.734-.676.522zM248.256 175.645L227.7 163.744c-.418-.302-.669-.785-.677-1.301v-2.737c0-.5.3-.723.677-.511l20.555 12.001c.42.295.672.776.676 1.29v2.736c0 .423-.299.69-.676.423zM202.864 196.678L198.937 186.545 191.805 196.733 199.636 201.271 206.081 204.997 220.446 213.317 210.041 186.434z"/>
                        <ellipse cx="233.643" cy="198.248" fill="#DADCE5" rx="3.843" ry="6.659" transform="rotate(-29.887 233.643 198.248)"/>
                        <path fill="#DADCE5" d="M203.264 288.55L199.348 278.417 192.204 288.605 200.047 293.143 206.492 296.869 220.857 305.189 210.452 278.306z"/>
                        <ellipse cx="232.218" cy="289.037" fill="#DADCE5" rx="3.83" ry="6.636" transform="rotate(-30 232.218 289.037)"/>
                    </g>
                    <path fill="#232733" d="M300.205 227.749L295.538 248.028 295.538 230.67zM239.542 193.43L234.875 213.709 234.875 196.361z"/>
                    <path fill="#E9EAF2" d="M325.79 322.61l-122.734-71.517c-1.486-1.076-2.377-2.8-2.401-4.647V183.08c0-1.79 1.101-2.613 2.401-1.835l122.735 71.517c1.49 1.069 2.385 2.79 2.412 4.636v63.423c0 1.745-1.08 2.568-2.412 1.79z"/>
                    <path fill="#001260" d="M236.376 248.108L229.779 231.065 217.765 248.195 230.958 255.835 241.793 262.107 265.984 276.106 248.466 230.868z"/>
                    <ellipse cx="299.873" cy="256.504" fill="#001260" rx="6.526" ry="11.331" transform="rotate(-30 299.873 256.504)"/>
                    <path fill="#353C4C" d="M292.704 223.507L292.693 199.994 285.94 194.99 285.94 223.507 278.428 227.785 289.316 233.988 300.205 227.785z"/>
                    <path fill="#232733" d="M289.316 234.013L295.538 248.028 295.538 231.842 295.538 230.868z"/>
                    <path fill="#2B303F" d="M278.428 227.749L283.414 241.362 295.538 248.028 289.677 233.852z"/>
                    <path fill="#353C4C" d="M233.586 187.632L233.586 159.112 226.832 159.112 226.832 187.621 219.32 191.898 230.209 198.11 241.097 191.898z"/>
                    <path fill="#232733" d="M228.653 199.695L234.875 213.709 234.875 197.524 234.875 196.55z"/>
                    <path fill="#2B303F" d="M217.765 193.43L222.751 207.036 234.875 213.709 229.014 199.541z"/>
                    <path fill="#D6D8E5" d="M159.658 322.96L92.892 283.906 12.444 330.733 84.419 372.821 164.879 325.994 164.879 319.927z" opacity=".4"/>
                    <path fill="#B1B4C4" d="M167.418 318.307L91.772 274.546 16.126 318.307 10.888 315.276 10.888 321.338 91.772 368.141 172.657 321.338 172.657 315.276z"/>
                    <path fill="#E7E9F2" d="M91.772 361.902L10.888 315.104 91.772 268.306 172.657 315.104z"/>
                    <path fill="#B1B4C4" d="M91.772 296.385L96.439 293.349 96.439 68.637 91.772 71.672z"/>
                    <path fill="#B1B4C4" d="M91.772 163.392L128.515 221.509 133.77 219.364 96.607 160.672z"/>
                    <path fill="#D6D8E5" d="M91.772 174.673L129.104 233.988 129.104 222.893 91.772 163.792zM87.106 293.349L91.772 296.385 91.772 71.672 87.106 68.637zM129.104 318.308L133.77 321.344 133.77 96.631 129.104 93.595z"/>
                    <path fill="#B1B4C4" d="M133.77 321.344L138.436 318.308 138.436 93.595 133.77 96.631z"/>
                    <path fill="#D6D8E5" d="M91.772 280.786L129.104 236.747 129.104 226.189 91.772 270.294z"/>
                    <path fill="#B1B4C4" d="M91.772 280.786L96.906 277.995 129.104 239.432 129.104 235.548z"/>
                    <path fill="#D6D8E5" d="M91.772 163.792L129.104 119.753 129.104 109.194 91.772 153.3z"/>
                    <path fill="#B1B4C4" d="M91.772 163.792L96.906 160.99 129.104 122.438 129.104 118.554zM51.33 321.344L55.997 318.308 55.997 93.595 51.33 96.631z"/>
                    <path fill="#B1B4C4" d="M51.33 188.351L88.073 246.468 93.328 244.333 56.165 185.631z"/>
                    <path fill="#D6D8E5" d="M49.775 198.083L87.106 257.387 87.106 246.303 49.775 187.191zM45.108 318.308L49.775 321.344 49.775 96.631 45.108 93.595zM87.106 343.267L91.772 346.303 91.772 121.601 87.106 118.554z"/>
                    <path fill="#B1B4C4" d="M93.328 346.303L97.994 343.267 97.994 118.554 93.328 121.601z"/>
                    <path fill="#D6D8E5" d="M49.775 305.745L87.106 261.715 87.106 251.147 49.775 295.254z"/>
                    <path fill="#B1B4C4" d="M49.775 305.745L54.909 302.944 87.106 264.401 87.106 260.507z"/>
                    <path fill="#D6D8E5" d="M49.775 188.75L87.106 144.721 87.106 134.153 49.775 178.249z"/>
                    <path fill="#B1B4C4" d="M49.775 188.75L54.909 185.95 87.106 147.396 87.106 143.513z"/>
                    <path fill="#F7DC6B" d="M93.328 132.593L38.887 101.389 93.328 70.196 147.769 101.389z"/>
                    <path fill="#353C4C" d="M88.661 41.963L24.569 79.556 6.222 68.791 70.315 31.198z"/>
                    <path fill="#2B303F" d="M6.222 83.199L6.222 68.637 24.887 79.033 24.887 93.595z"/>
                    <path fill="#232733" d="M24.887 93.595L88.661 56.854 88.661 42.118 24.887 78.859 24.887 92.161"/>
                    <path fill="#353C4C" d="M88.661 24.804L24.569 62.397 6.222 51.632 70.315 14.039z"/>
                    <path fill="#2B303F" d="M6.222 67.604L6.222 53.037 24.887 63.43 24.887 77.996z"/>
                    <path fill="#232733" d="M24.887 76.436L88.661 39.703 88.661 24.959 24.887 61.692 24.887 75.002"/>
                    <path fill="#D6D8E5" d="M40.442 71.756L0 48.894 0 40.558 40.442 63.277z"/>
                    <path fill="#E7E9F2" d="M97.033 96.715L0 40.105 7.183 35.878 104.216 92.488z"/>
                    <path fill="#D6D8E5" d="M83.995 57.717L34.22 28.654 34.22 20.279 83.995 47.201z"/>
                    <path fill="#E7E9F2" d="M121.913 71.756L34.22 21.362 41.411 17.159 129.104 67.553z"/>
                    <path fill="#D6D8E5" d="M60.663 35.878L60.663 44.303 63.794 68.561 68.44 71.756z"/>
                    <path fill="#E7E9F2" d="M76.218 74.876L69.416 40.768 60.663 35.878 65.97 69.49z"/>
                    <path fill="#B1B4C4" d="M60.663 44.699L33.945 51.477 20.221 43.845 59.495 35.878 60.663 36.548z"/>
                    <path fill="#E7E9F2" d="M60.663 35.886L23.534 45.238 15.555 40.673 52.975 31.198z"/>
                    <path fill="#E7E9F2" d="M93.328 62.397L38.887 31.198 93.328 0 147.769 31.198z"/>
                    <path fill="#D6D8E5" d="M38.887 127.822L38.887 31.198 93.328 62.489 93.328 159.112z"/>
                    <path fill="#B1B4C4" d="M146.214 31.198L146.214 127.822 91.772 159.112 91.772 62.478z"/>
                    <path fill="#FC4942" d="M91.772 96.715L61.169 78.709 51.33 46.798 91.772 70.598zM146.214 38.998L146.214 65.215 91.772 96.715 91.772 70.498z"/>
                    <path fill="#D6D8E5" d="M334.425 243.348L99.55 106.687 99.55 98.275 334.425 234.935z"/>
                    <path fill="#E7E9F2" d="M334.956 235.548L99.55 99.348 106.796 95.155 342.202 231.356z"/>
                    <path fill="#D6D8E5" d="M368.645 224.629L133.77 87.968 133.77 79.556 368.645 216.216z"/>
                    <path fill="#E7E9F2" d="M369.177 215.269L133.77 79.068 141.016 74.876 376.422 211.077z"/>
                    <path fill="#B1B4C4" d="M374.867 220.337L334.425 243.348 334.425 235.149 374.867 212.149z"/>
                    <path fill="#E7E9F2" d="M374.867 212.499L334.28 235.548 328.203 232.078 368.789 209.029z"/>
                    <path fill="#B1B4C4" d="M339.091 206.931L312.369 213.709 298.649 206.077 337.912 198.11 339.091 198.78z"/>
                    <path fill="#E7E9F2" d="M339.091 198.117L301.962 207.47 293.983 202.893 331.392 193.43z"/>
                    <path fill="#D6D8E5" d="M279.984 163.792L279.984 172.219 283.115 196.484 287.761 199.67z"/>
                    <path fill="#E7E9F2" d="M295.538 202.79L288.737 168.682 279.984 163.792 285.302 197.403z"/>
                    <path fill="#B1B4C4" d="M279.984 172.613L253.266 179.391 239.542 171.759 278.816 163.792 279.984 164.462z"/>
                    <path fill="#E7E9F2" d="M279.984 163.799L242.857 173.151 234.875 168.586 272.294 159.112z"/>
                    <path fill="#D6D8E5" d="M220.876 129.473L220.876 137.898 223.997 162.156 228.653 165.352z"/>
                    <path fill="#E7E9F2" d="M234.875 168.472L228.074 134.363 219.32 129.473 224.627 163.085z"/>
                    <path fill="#B1B4C4" d="M220.876 138.295L194.158 145.073 180.434 137.441 219.708 129.473 220.876 130.144z"/>
                    <path fill="#E7E9F2" d="M219.32 129.481L182.191 138.833 174.212 134.268 211.632 124.794z"/>
                    <path fill="#D6D8E5" d="M160.213 95.155L160.213 103.583 163.334 127.848 167.99 131.033z"/>
                    <path fill="#E7E9F2" d="M175.767 134.153L168.972 100.045 160.213 95.155 165.523 128.767z"/>
                    <path fill="#B1B4C4" d="M160.213 103.976L133.495 110.754 119.771 103.122 159.045 95.155 160.213 95.825z"/>
                    <path fill="#E7E9F2" d="M160.213 95.163L123.084 104.515 115.104 99.95 152.514 90.475z"/>
                    <path fill="#D6D8E5" d="M103.633 555.332L73.107 537.839 118.798 511.654 149.325 529.136z" opacity=".4"/>
                    <path fill="#D6D8E5" d="M104.994 519.454L79.329 504.629 104.994 489.815 130.659 504.64z"/>
                    <path fill="#B1B6C4" d="M104.216 549.092L79.329 534.529 79.329 505.415 104.216 519.977z"/>
                    <path fill="#C4C7D6" d="M130.659 534.529L105.772 549.092 105.772 519.977 130.659 505.415z"/>
                    <g>
                        <path fill="#38226D" d="M58.03 99.162c2.216.61 4.584.324 6.588-.795 1.59 0 10.21-3.617 11.389-.54 1.022 2.702-2.711 5.195-4.711 5.67-4.355 1.102-7.578 3.209-9.322 3.573-1.3.276-2.989.452-4.033-.563-1.244-1.224-1.133-5.735.089-7.345z" transform="translate(81.429 425.331)"/>
                        <path fill="#9C73FF" d="M61.974 106.32c1.744-.364 4.967-2.515 9.322-3.563 1.677-.408 4.555-2.206 4.844-4.412.389 2.482-2.978 4.688-4.844 5.13-4.355 1.102-7.578 3.209-9.322 3.573-1.3.276-2.989.452-4.033-.563-.263-.3-.457-.654-.567-1.036 1.308.996 3.014 1.32 4.6.87z" transform="translate(81.429 425.331)"/>
                        <path fill="#38226D" d="M42.475 90.944c2.22.611 4.592.326 6.6-.794 1.589 0 10.21-3.617 11.377-.54 1.033 2.702-2.7 5.195-4.7 5.67-4.355 1.047-7.577 3.209-9.333 3.573-1.3.275-2.988.452-4.021-.563-1.245-1.224-1.145-5.735.077-7.346z" transform="translate(81.429 425.331)"/>
                        <path fill="#9C73FF" d="M46.42 98.103c1.755-.364 4.977-2.515 9.332-3.563 1.667-.408 4.556-2.206 4.844-4.412.39 2.482-2.988 4.688-4.844 5.129-4.355 1.048-7.577 3.21-9.333 3.574-1.3.275-2.988.452-4.021-.563-.271-.296-.47-.651-.578-1.037 1.309.995 3.014 1.318 4.6.872z" transform="translate(81.429 425.331)"/>
                        <path fill="#8C50FF" d="M18.266 80.29c6.666 2.934 13.065 3.397 18.254.628l5.355-3.066c.323 6.86.623 13.456.623 13.456s4.11 3.089 7.31.331c0 0 .667-9.629 1.345-19.103l5.621-3.22c-.135.503-.21 1.022-.222 1.543 0 1.81 1.3 28.567 1.3 28.567s4.144 2.449 7.344-.309c0 0 2.156-31.015 2.644-35.968.556-5.57-5.677-8.316-9.61-6.882-.922.32-3.178 1.158-6.033 2.206.122-1.555.222-2.758.289-3.441.566-5.582-5.667-8.328-9.61-6.894-3.6 1.301-27.866 10.39-27.866 10.39.151 2.312.437 4.614.856 6.894l-9.577-.795c-.578 8.901 5.266 12.729 11.977 15.663zm16.743-15.442l6.41-3.673c-.112.448-.183.906-.21 1.368l-6.2 2.305z" transform="translate(81.429 425.331)"/>
                        <path fill="#FFCEA9" d="M1.033 37.428s.79 11.835 2.356 13.545c1.566 1.71 6.855 2.867 6.855 2.867l4.066 6.618s-3.744-21.122-4.522-21.63c-.777-.507-8.755-1.4-8.755-1.4z" transform="translate(81.429 425.331)"/>
                        <path fill="#EDEDED" d="M8.866 24.336c-2.049-.947-4.487-.216-5.666 1.698C1.7 28.505.144 36.954 0 38.4c0 0 2.1 2.89 5.255 2.404l3.611-16.467z" transform="translate(81.429 425.331)"/>
                        <path fill="#FFCEA9" d="M10.3 24.435c2.066.1 3.6.629 3.855 0 .22-1.052.377-2.117.466-3.188-.233-.595-.444-1.235-.444-1.235-2.578-1.577-3.4-4.412-3.744-7.588-.578-5.515 2.433-10.368 8-10.942 5.232-.54 9.076 3.11 10.11 8.118.544 2.482 1.655 7.158.166 11.228-.833 2.272-1.91 4.081-2.977 4.412-1.038-.03-2.073-.122-3.1-.276 0 0-.278 1.534-.467 2.515-.189.982-.11 1.511 1.856 2.714 1.966 1.202-2.989 3.695-6.222 3.452-3.233-.243-6.889-2.206-7.9-4.269-1.11-2.272-1.01-5.04.4-4.941z" transform="translate(81.429 425.331)"/>
                        <g>
                            <g>
                                <path fill="#E5E5E5" d="M41.064 13.754c.005.595-.314 1.147-.833 1.445l-15.7 9c-.518.298-1.158.298-1.677 0L.834 11.581C.316 11.286 0 10.74 0 10.147v-.132l41.064 3.74z" transform="translate(81.429 425.331) translate(21.432 27.385) translate(0 19.495)"/>
                                <path fill="#E5E5E5" d="M40.242 15.199l-15.699 9c-.257.147-.548.224-.844.22V13.755h17.376c.005.595-.313 1.147-.833 1.445z" transform="translate(81.429 425.331) translate(21.432 27.385) translate(0 19.495)"/>
                                <g fill="#F4F4F4">
                                    <path d="M24.257 23.383c-.364.209-.813.209-1.178 0L.225 10.27c-.3-.166-.3-.441 0-.607L17.068 0l23.999 13.754-16.81 9.63z" transform="translate(81.429 425.331) translate(21.432 27.385) translate(0 19.495) translate(.02)"/>
                                </g>
                                <g>
                                    <path fill="#BFBFBF" d="M0 2.371L0.111 2.438 7.444 6.64 11.466 4.335 11.588 4.269 4.133 0z" transform="translate(81.429 425.331) translate(21.432 27.385) translate(0 19.495) translate(9.622 11.383)"/>
                                    <path fill="#E5E5E5" d="M0.111 2.438L7.444 6.64 11.466 4.335 4.133 0.132z" transform="translate(81.429 425.331) translate(21.432 27.385) translate(0 19.495) translate(9.622 11.383)"/>
                                </g>
                                <path fill="#3A2C6D" d="M34.842 14.438l1.111.607c.106.05.228.05.334 0l1.01-.585c.1-.055.112-.143 0-.188l-1.11-.606c-.104-.055-.23-.055-.334 0l-1.01.573c-.067.067-.078.144 0 .199zM33.354 13.578l1.11.606c.105.055.23.055.334 0l1.011-.584c.1-.055.111-.144 0-.188l-1.111-.606c-.104-.055-.23-.055-.333 0l-1.011.584c-.078.055-.09.143 0 .188zM31.854 12.75l1.11.607c.105.055.23.055.334 0l1.011-.574c.1-.066.111-.143 0-.198l-1.055-.607c-.106-.05-.228-.05-.334 0l-1.01.585c-.134.022-.145.11-.056.187zM30.354 11.868l1.11.607c.11.048.236.048.345 0l1.011-.574c.1 0 .111-.143 0-.198l-1.11-.607c-.109-.055-.237-.055-.345 0l-1.011.573c-.111.056-.111.144 0 .199zM28.854 11.008l1.11.606c.105.055.23.055.334 0l1.011-.573c.1-.055.111-.144 0-.188l-1.11-.606c-.109-.055-.237-.055-.345 0l-1 .573c-.067.044-.078.133 0 .188zM27.365 10.147l1.111.607c.106.05.228.05.333 0l1.011-.585c.1 0 .112-.143 0-.187l-1.11-.607c-.105-.055-.23-.055-.334 0l-1.01.574c-.079.066-.09.143 0 .198zM25.865 9.287l1.111.607c.104.055.23.055.334 0l1.01-.585c.1-.055.112-.143 0-.187l-1.055-.607c-.104-.055-.229-.055-.333 0L25.92 9.1c-.123.055-.123.143-.056.187zM24.365 8.427l1.111.606c.108.055.237.055.345 0l1.01-.573c.1-.066.1-.144 0-.199l-1.11-.606c-.11-.05-.235-.05-.345 0l-1.01.584c-.079.1-.09.1 0 .188zM22.865 7.577l1.111.607c.106.048.228.048.334 0l1.01-.573c.1-.056.112-.144 0-.199l-1.11-.607c-.108-.055-.237-.055-.345 0l-1 .574c-.066.055-.077.143 0 .198zM21.354 6.717l1.111.607c.105.055.23.055.334 0l1.01-.574c.1-.055.112-.143 0-.187l-1.11-.607c-.105-.055-.23-.055-.334 0l-1.01.574c0 .044-.067.132 0 .187zM19.877 5.857l1.11.606c.106.05.228.05.334 0l1.011-.584c.1-.055.111-.144 0-.188l-1.055-.606c-.105-.055-.23-.055-.334 0l-1.01.573c-.134.066-.145.144-.056.199zM18.377 5.03l1.11.606c.109.055.237.055.345 0l1.011-.584c.1-.056.1-.144 0-.188l-1.11-.607c-.109-.054-.237-.054-.345 0l-1.011.585c-.078.022-.09.11 0 .188zM16.91 4.136l1.111.607c.104.055.23.055.333 0l1.012-.574c.1-.066.11-.143 0-.198l-1.112-.607c-.109-.05-.235-.05-.344 0l-1 .585c-.1.055-.111.143 0 .187zM14.688 2.824l1.778 1.025c.105.05.228.05.333 0l1.011-.573c.1-.055.111-.144 0-.199l-1.778-1.014c-.104-.055-.229-.055-.333 0l-1.011.584c-.1.088-.111.177 0 .177zM31.176 13.997l1.111.606c.105.05.228.05.333 0l1.011-.584c.1-.055.111-.144 0-.188l-1.11-.606c-.105-.055-.23-.055-.334 0l-1.011.573c-.078.055-.089.144 0 .199zM29.676 13.136l1.111.607c.11.05.235.05.345 0l1-.585c.1-.055.11-.143 0-.187l-1.112-.607c-.104-.055-.229-.055-.333 0l-1.011.585c-.078.055-.089.143 0 .187zM28.176 12.276l1.111.607c.108.055.236.055.345 0l1-.585c.1-.055.11-.143 0-.187l-1.112-.607c-.104-.055-.229-.055-.333 0l-1.01.585c-.079.055-.09.143 0 .187zM26.676 11.416l1.056.606c.108.055.236.055.344 0l1-.584c.1-.055.111-.144 0-.188l-1.111-.606c-.104-.055-.23-.055-.333 0l-1.011.584c-.023.055-.034.144.055.188zM25.187 10.544l1.111.607c.11.05.236.05.345 0l1-.585c.1 0 .11-.143 0-.187l-1.111-.607c-.104-.055-.23-.055-.334 0l-1.01.574c-.078.088-.09.198 0 .198zM23.688 9.706l1.11.607c.11.05.236.05.345 0l1-.585c.1-.055.111-.143 0-.187l-1.111-.607c-.104-.055-.23-.055-.333 0l-1.011.574c-.112.066-.112.143 0 .198zM22.188 8.846l1.11.606c.11.05.236.05.345 0l1-.584c.1-.055.111-.143 0-.188l-1.111-.606c-.104-.055-.23-.055-.333 0l-1.011.573c-.078.067-.09.144 0 .199zM20.688 7.986l1.055.606c.11.05.235.05.345 0l1.01-.584c.09-.056.1-.144 0-.188l-1.11-.607c-.105-.054-.23-.054-.334 0l-1.01.585c-.034.055-.045.143.044.188zM19.188 7.125l1.11.607c.109.055.237.055.345 0l1.011-.585c.09-.055.1-.143 0-.187L20.6 6.353c-.108-.055-.237-.055-.345 0l-1.01.585c-.112.055-.112.143-.056.187zM17.688 6.265l1.11.607c.109.055.237.055.345 0l1.011-.585c.1-.055.1-.143 0-.188l-1.11-.606c-.11-.05-.236-.05-.345 0l-1.011.584c-.078.056-.089.144 0 .188zM16.188 5.405l1.111.606c.108.055.236.055.344 0l1.011-.573c.1-.067.1-.155 0-.199l-1.11-.607c-.11-.05-.236-.05-.345 0l-1.011.585c-.078.055-.089.143 0 .188zM14.688 4.544l1.111.607c.108.055.236.055.344 0l1.012-.574c.1-.066.11-.143 0-.198l-1.111-.607c-.11-.05-.236-.05-.345 0l-1.011.585c-.078.055-.089.143 0 .187zM32.676 14.857l1.778 1.015c.104.055.229.055.333 0l1.01-.574c.1-.066.112-.143 0-.198l-1.777-1.015c-.104-.055-.229-.055-.333 0l-1.011.574c-.078.066-.089.143 0 .198zM14.566 2.912l1.11.606c.05 0 .09.04.09.089 0 .048-.04.088-.09.088l-1.11.618c-.1.044-.212.044-.311 0l-.09-.056c-.09-.043-.197-.043-.288 0l-1.111.651c-.099.045-.212.045-.311 0l-.678-.386c-.089-.055-.089-.132 0-.176l1.111-.607.222-.121.156-.1.155-.088.911-.518c.075-.03.159-.03.234 0zM29.043 17.758l1.11.607c.105.054.23.054.334 0l1.011-.574c.1-.066.111-.143 0-.199l-1.055-.606c-.106-.05-.228-.05-.334 0l-1.01.584c-.134.056-.145.144-.056.188zM27.543 16.909l1.11.606c.109.055.237.055.345 0l1-.573c.1 0 .111-.144 0-.199l-1.11-.595c-.105-.055-.23-.055-.334 0l-1.011.573c-.078.044-.09.132 0 .188zM26.054 16.06l1.111.606c.104.055.23.055.333 0l1.011-.585c.1-.055.112-.143 0-.187l-1.11-.607c-.105-.055-.23-.055-.334 0l-1.011.585c-.078.044-.089.187 0 .187zM13.333 8.758l1.11.606c.105.055.23.055.334 0l1.011-.573c.1 0 .111-.144 0-.199l-1.111-.606c-.108-.055-.236-.055-.345 0l-1 .573c-.066.066-.077.155 0 .199zM11.844 7.908l1.11.607c.11.05.236.05.345 0l1-.585c.1-.055.111-.143 0-.187l-1.11-.607c-.105-.055-.23-.055-.334 0l-1.011.574c-.078.066-.09.143 0 .198zM10.355 7.048l1.111.607c.104.055.23.055.333 0l1.011-.574c.1-.066.111-.143 0-.198l-1.11-.607c-.106-.05-.229-.05-.334 0l-1.011.585c-.111.055-.111.143 0 .187zM8.855 6.199l1.111.606c.104.055.23.055.333 0l1.011-.573c.1-.055.112-.144 0-.199l-1.11-.595c-.109-.055-.237-.055-.345 0l-1 .573c-.067.044-.078.122 0 .188zM24.176 14.956l1.445.817c.104.054.229.054.333 0l1.011-.574c.1-.055.111-.143 0-.199l-1.444-.827c-.104-.055-.23-.055-.334 0l-1.01.574c-.078.088-.09.21 0 .21zM14.832 9.618l1.445.827c.105.05.228.05.333 0l1.011-.584c.1-.056.111-.144 0-.188l-1.444-.827c-.104-.055-.23-.055-.333 0l-1.012.584c-.077.011-.088.144 0 .188zM16.71 10.699l7.033 4.026c.106.05.228.05.333 0l1.011-.585c.1-.055.112-.143 0-.187l-7.033-4.037c-.104-.055-.229-.055-.333 0l-1.01.573c-.079.055-.09.155 0 .21zM29.32 14.592l1.112.607c.104.055.229.055.333 0l1.01-.585c.1-.055.112-.143 0-.187l-1.055-.607c-.105-.05-.227-.05-.333 0l-1.01.585c-.134.055-.145.143-.056.187zM27.82 13.732l1.112.607c.108.055.236.055.344 0l1-.574c.1-.055.111-.143 0-.198l-1.111-.607c-.104-.055-.23-.055-.333 0l-1.011.573c-.078.067-.09.155 0 .199zM26.332 12.883l1.11.606c.105.055.23.055.334 0l1.011-.573c.1-.055.111-.144 0-.188l-1.11-.606c-.105-.055-.23-.055-.334 0l-1.011.573c-.078.055-.09.133 0 .188zM24.832 12.022l1.11.607c.105.055.23.055.334 0l1.011-.585c.1-.055.111-.143 0-.187l-1.11-.607c-.105-.055-.23-.055-.334 0l-1.011.585c-.078.055-.089.143 0 .187zM23.332 11.162l1.111.607c.104.055.23.055.333 0l1.011-.574c.1-.066.111-.143 0-.198l-1.11-.607c-.11-.05-.236-.05-.345 0l-1.011.585c-.056.055-.067.143.011.187zM21.843 10.313l1.111.606c.104.055.23.055.334 0l1.01-.573c.1-.055.112-.143 0-.199l-1.11-.606c-.106-.05-.228-.05-.334 0l-1.01.573c-.079.055-.09.144 0 .199zM20.343 9.441l1.111.607c.11.05.235.05.345 0l1-.584c.1 0 .11-.144 0-.188l-1.111-.607c-.105-.055-.23-.055-.334 0l-1.01.574c-.1.077-.1.198 0 .198zM18.854 8.592l1.111.607c.105.055.23.055.334 0l1.01-.585c.1-.055.112-.143 0-.187L20.2 7.82c-.106-.05-.228-.05-.333 0l-1.012.585c-.077.055-.088.143 0 .187zM17.355 7.732l1.055.606c.104.055.23.055.333 0l1.011-.573c.1-.055.112-.143 0-.199l-1.11-.606c-.105-.055-.23-.055-.334 0l-1.011.573c-.022.066-.033.155.056.199zM15.855 6.883l1.11.606c.109.055.237.055.345 0l1.011-.573c.1-.055.111-.144 0-.188l-1.055-.606c-.108-.055-.237-.055-.345 0l-1.01.573c-.112.044-.112.132-.056.188zM14.366 6.022l1.11.607c.105.055.23.055.334 0l1.011-.585c.1-.055.111-.143 0-.187l-1.11-.607c-.105-.055-.23-.055-.334 0l-1.011.585c-.078.055-.09.143 0 .187z" transform="translate(81.429 425.331) translate(21.432 27.385) translate(0 19.495)"/>
                                <path fill="#3A2C6D" d="M12.866 5.162l1.111.607c.108.055.236.055.344 0l1-.574c.1-.066.111-.143 0-.199l-1.11-.606c-.106-.05-.229-.05-.334 0l-1.011.584c-.078.056-.089.144 0 .188zM30.81 15.453l2.221 1.257c.106.05.228.05.334 0l1.01-.573c.1-.056.112-.144 0-.199l-2.221-1.246c-.108-.055-.237-.055-.345 0l-1 .573c-.066.055-.077.133 0 .188zM28.61 15.85l1.11.606c.105.055.23.055.334 0l1.01-.584c.1-.055.112-.144 0-.188l-1.055-.606c-.105-.05-.227-.05-.333 0l-1.011.584c-.133.055-.144.144-.056.188zM27.11 14.956l1.11.607c.105.055.23.055.334 0l1.01-.574c.1-.055.112-.143 0-.198l-1.11-.607c-.108-.055-.236-.055-.345 0l-1 .574c-.066.1-.077.198 0 .198zM25.62 14.14l1.112.607c.104.055.229.055.333 0l1.011-.574c.1 0 .111-.143 0-.187l-1.11-.607c-.105-.055-.23-.055-.334 0l-1.011.574c-.078.044-.09.132 0 .187zM24.12 13.28l1.112.606c.108.055.236.055.344 0l1.011-.584c.09-.055.1-.144 0-.188l-1.11-.606c-.109-.055-.237-.055-.345 0l-1.011.584c-.078.055-.09.144 0 .188zM22.632 12.42l1.056.606c.104.055.229.055.333 0l1.01-.573c.1-.067.112-.144 0-.199l-1.11-.607c-.106-.05-.228-.05-.333 0l-1.012.585c-.022.055-.033.143.056.187zM21.132 11.57l1.111.607c.108.055.236.055.345 0l1-.574c.1-.055.11-.143 0-.198l-1.112-.607c-.105-.048-.227-.048-.333 0l-1.01.574c-.079.055-.09.143 0 .198zM19.632 10.71l1.111.607c.106.05.228.05.334 0l1.01-.585c.1-.055.112-.143 0-.188l-1.11-.606c-.109-.055-.237-.055-.345 0l-1 .573c-.066.033-.078.144 0 .199zM18.143 9.85l1.111.606c.105.055.23.055.334 0l1.01-.573c.1-.067.112-.144 0-.199l-1.11-.607c-.106-.05-.228-.05-.334 0l-1.01.585c-.123.055-.123.143 0 .188zM16.643 9l1.056.607c.11.049.235.049.344 0l1.011-.574c.1-.055.112-.143 0-.198l-1.11-.607c-.109-.055-.237-.055-.345 0l-1.011.574c-.011.055-.022.143.055.198zM15.155 8.14l1.11.607c.106.05.229.05.334 0l1.011-.585c.1-.055.111-.143 0-.187l-1.055-.607c-.105-.055-.23-.055-.334 0l-1.01.573c-.134.067-.145.144-.056.199zM13.655 7.236l1.11.606c.109.055.237.055.345 0l1-.584c.1-.056.111-.144 0-.188L15 6.463c-.106-.05-.229-.05-.334 0l-1.011.585c-.078.1-.078.188 0 .188zM10.31 5.36l2.911 1.666c.105.055.23.055.334 0l1.01-.574c.1 0 .112-.143 0-.198l-2.91-1.666c-.106-.05-.228-.05-.333 0l-1.011.585c-.067.055-.067.143 0 .187zM30.11 16.71l1.433.827c.109.05.235.05.344 0l1-.584c.1-.055.111-.144 0-.188l-1.444-.827c-.105-.055-.23-.055-.334 0l-1.01.574c-.067.066-.079.143.01.198z" transform="translate(81.429 425.331) translate(21.432 27.385) translate(0 19.495)"/>
                            </g>
                            <g>
                                <g>
                                    <path fill="#E5E5E5" d="M23.999 33.25L0 19.494V.745L.19.325l.2-.099C.903-.06 1.53-.06 2.044.226L24 12.822c.516.29.834.834.833 1.423v17.57c-.156.927-.322 1.148-.833 1.434z" transform="translate(81.429 425.331) translate(21.432 27.385) translate(17.066)"/>
                                    <path fill="#E5E5E5" d="M21.799 15.094L0 1.362V.734L.19.314l.2-.099c.514-.287 1.141-.287 1.655 0L24 12.811c.268.149.488.37.633.64l-2.833 1.643z" transform="translate(81.429 425.331) translate(21.432 27.385) translate(17.066)"/>
                                    <path fill="#DCEEFF" d="M.556.337l23.043 13.235c.248.14.4.401.4.684v19.015L0 19.517V.657C-.003.523.067.4.183.333.298.267.44.268.556.337z" transform="translate(81.429 425.331) translate(21.432 27.385) translate(17.066)"/>
                                    <path fill="#F4F4F4" d="M.556.337l23.043 13.235c.248.14.4.401.4.684v19.015L0 19.517V.657C-.003.523.067.4.183.333.298.267.44.268.556.337z" transform="translate(81.429 425.331) translate(21.432 27.385) translate(17.066)"/>
                                    <path fill="#DBDBDB" d="M23.999 33.249L23.999 32.576 0 18.811 0 19.495z" transform="translate(81.429 425.331) translate(21.432 27.385) translate(17.066)"/>
                                </g>
                                <path fill="#1E3779" d="M0.622 18.503L0.622 1.318 0.922 1.484 0.922 18.348z" transform="translate(81.429 425.331) translate(21.432 27.385) translate(17.066)"/>
                                <path fill="#3A2C6D" d="M0.922 1.484L0.922 18.348 23.232 31.11 23.232 14.278z" transform="translate(81.429 425.331) translate(21.432 27.385) translate(17.066)"/>
                                <path fill="#031F60" d="M0.622 18.503L23.232 31.451 23.232 31.11 0.922 18.348z" transform="translate(81.429 425.331) translate(21.432 27.385) translate(17.066)"/>
                            </g>
                        </g>
                        <path fill="#F4F4F4" d="M13.277 24.744c-.567 1.412.889 3.132 4.755 4.346 3.867 1.213 4.222-.342 4.222-.342 2.577 1.141 5.088 2.423 7.522 3.838 2.322 1.621 3.333 6.276 3.655 14.151.367 9.11.4 22.633.09 24.96 0 0-4.334 4.302-9.89 3.85-5.554-.452-14.898-5.339-17.165-9.1 0-7.996 1-9.298-.3-13.897-2.988-10.534-4.555-14.846-3.11-21.85 1.2-5.769 2.877-6.486 5.166-6.43 1.692.068 3.38.226 5.055.474z" transform="translate(81.429 425.331)"/>
                        <path fill="#FFCEA9" d="M42.575 56.51c-4.566 1.103-5.633-1.71-6.233-4.081-1.444-5.714-2.222-10.887-3.333-14.13-1.278-3.827-2.61-4.411-4.444-5.184-2.222-.87-4.1.971-3.333 5.846.896 5.656 2.294 11.222 4.177 16.633.567 1.787 1.845 4.952 3.745 6.475 2.355 1.886 5.888 1.808 11.255.485 2.222-.563 4.788-1.92 9.11-3.927 1.111-.53 2.067-.893 4.289-1.919 2.24-.986 4.205-2.5 5.722-4.412 1.166-1.676 1.322-2.46 1.11-2.846-.21-.386-.822-.375-1.444.331-.913 1.2-2.043 2.222-3.333 3.012 0 0 1.445-1.467 2.222-2.427.705-.848 1.285-1.791 1.722-2.802.423-.981-.433-2.305-1.11-1.61-.678.695-.956 1.412-2.134 2.813-.618.75-1.327 1.42-2.11 1.996.731-.983 1.381-2.023 1.943-3.11.508-.845.756-1.82.712-2.802 0-.518-.756-1.103-1.445-.154-.66 1.333-1.48 2.581-2.444 3.717-1.045 1.103-1.922 1.687-1.956 1.39-.033-.298.634-.883 1-2.13.367-1.246 0-2.58-.688-2.724-.69-.143-.567-.099-1.112 1.103-.769 1.201-1.46 2.45-2.066 3.74-.355 1.201-1 2.299-1.878 3.198-1.133 1.125-3.61 2.438-7.944 3.519z" transform="translate(81.429 425.331)"/>
                        <path fill="#EDEDED" d="M26.865 32.332c3.044-.44 5.189.916 6.533 5.515 1.344 4.6 2.289 8.339 2.289 8.339-1.217 1.704-3.04 2.886-5.1 3.309-3.644.871-4.955-.85-4.955-.85s-1.011-4.809-1.633-8.073c-.623-3.265-.9-7.688 2.866-8.24z" transform="translate(81.429 425.331)"/>
                        <path fill="#3A2C6D" d="M28.343 8.894s4.81-7.257-5.555-8.735C15.266-.944 10.444 3.887 9.878 9.082c-.534 4.974 2.555 10.136 4.777 12.187 2.19.543 4.504.264 6.5-.783.124-1.353.172-2.711.144-4.07 0 0-3.7-7.654 7.044-7.522z" transform="translate(81.429 425.331)"/>
                    </g>
                    <path fill="#C4C7D6" d="M130.659 526.761L130.659 505.415 113.549 515.31 120.136 528.813z"/>
                    <path fill="#D6D8E5" d="M119.771 505.928L126.147 502.295 130.659 504.859 124.05 508.534z"/>
                    <path fill="#D6D8E5" d="M35.229 383.956l-29.846-17.53c-3.347-1.988-2.968-5.462.949-7.753l15.173-8.937c3.916-2.235 9.83-2.536 13.221-.548l29.89 17.53c3.348 1.977 2.957 5.451-.948 7.753l-15.174 8.938c-3.96 2.29-9.885 2.536-13.265.547z" opacity=".4"/>
                    <path fill="#D6D8E5" d="M71.551 367.105v-41.702l-63.774-7.179v41.965c.025 1.465.889 2.79 2.23 3.42l29.891 17.25c3.344 1.957 9.307 1.715 13.208-.55l15.157-8.796c2.23-1.275 3.344-2.913 3.233-4.397l.055-.011z"/>
                    <path fill="#EDF0F9" d="M71.542 329.282v-4.628h-4.908l-27.242-16.009c-3.347-1.99-9.315-1.733-13.22.56l-15.17 8.943c-.275.155-.539.327-.793.514l-2.432-1.308v5.053c.035 1.484.897 2.823 2.231 3.466l29.92 17.529c3.346 1.99 9.314 1.733 13.219-.56l15.171-8.943c2.231-1.33 3.347-3.052 3.224-4.661v.044z"/>
                    <path fill="#E2E5F2" d="M39.929 338.723l-29.88-17.528c-3.347-1.989-2.967-5.463.949-7.753l15.174-8.938c3.905-2.234 9.83-2.547 13.221-.558l29.89 17.528c3.348 1.989 2.958 5.463-.959 7.753l-15.174 8.938c-3.849 2.29-9.83 2.547-13.221.558z"/>
                    <path fill="#6E48E5" d="M34.22 314.323v-1.475h-1.038l-.33-.176c-2.072-.917-4.535-.917-6.607 0-.195.095-.378.206-.548.332l-.81-.156v1.475c.056.727.58 1.367 1.358 1.66 2.074.908 4.532.908 6.606 0 .77-.304 1.292-.937 1.37-1.66z"/>
                    <ellipse cx="29.554" cy="312.764" fill="#8C50FF" rx="4.666" ry="2.34"/>
                    <path fill="#6E48E5" d="M45.108 320.563v-1.475H44.07l-.32-.176c-2.07-.917-4.534-.917-6.605 0-.2.092-.388.204-.56.332l-.81-.156v1.475c.078.723.6 1.356 1.37 1.66 2.074.908 4.531.908 6.606 0 .779-.294 1.302-.934 1.357-1.66z"/>
                    <ellipse cx="40.442" cy="319.004" fill="#8C50FF" rx="4.666" ry="2.34"/>
                    <path fill="#6E48E5" d="M55.997 326.799v-1.473h-1.049l-.319-.175c-2.069-.916-4.529-.916-6.598 0-.197.095-.384.206-.558.331l-.81-.156v1.473c.073.723.596 1.357 1.368 1.657 2.07.916 4.53.916 6.598 0 .773-.3 1.296-.934 1.368-1.657z"/>
                    <ellipse cx="51.33" cy="325.244" fill="#8C50FF" rx="4.666" ry="2.34"/>
                </g>
                <g>
                    <path fill="#D6D8E5" d="M195.356 95.259L34.862 2.325C30.522-.186 26.555-.592 23.537.765c-.418.19-.818.414-1.198.671L5.569 10.75l12.196 17.16v121.515c0 10.92 7.654 24.212 17.112 29.641l62.879 36.397 7.653 19.797-8.058 35.055 17.75-9.89 17.392-24.853 54.447 31.545 1.913 16.365 17.579-9.828c3.656-1.56 5.99-5.538 5.99-11.56V124.932c.046-10.92-7.608-24.213-17.066-29.673z" transform="translate(-135 -126) translate(135 126) translate(293.96)"/>
                    <path fill="#F8F9FF" d="M177.622 105.15L17.112 12.216C7.685 6.756 0 11.186 0 22.107v137.287c0 10.92 7.654 24.212 17.112 29.641l62.878 36.397 17.361 44.883 17.377-24.805 62.878 36.412c9.443 5.46 17.112 1.03 17.112-9.89v-137.21c-.015-10.92-7.654-24.212-17.096-29.672z" transform="translate(-135 -126) translate(135 126) translate(293.96)"/>
                    <path fill="#FC4942" d="M98.254 78.785c20.456 11.856 36.992 40.562 36.915 64.134-.078 23.573-16.692 33.09-37.149 21.233-20.456-11.857-36.993-40.562-36.915-64.12.078-23.556 16.708-33.088 37.149-21.247zm20.223 69.111l-12.648-21.966 12.741-7.285-7.654-13.292-12.74 7.285-12.648-21.981-7.7 4.4 12.647 21.95-12.74 7.285 7.638 13.276 12.74-7.285 12.648 21.981 7.7-4.4" transform="translate(-135 -126) translate(135 126) translate(293.96)"/>
                    <path fill="#C1C4D3" d="M141.236 220.798L141.204 232.889 48.94 179.456 48.971 167.381zM146.307 202.546L146.276 214.636 43.978 155.416 44.009 143.325z" transform="translate(-135 -126) translate(135 126) translate(293.96)"/>
                </g>
            </g>
        </g>
    </g>
</svg>
